<mxfile host="app.diagrams.net" agent="Mozilla/5.0 (Windows NT 10.0; Win64; x64) AppleWebKit/537.36 (KHTML, like Gecko) Chrome/132.0.0.0 Safari/537.36 Edg/132.0.0.0" version="26.0.6">
  <diagram name="第 1 页" id="3vM-LfTn7jZbJiqvsvi1">
    <mxGraphModel dx="570" dy="795" grid="1" gridSize="10" guides="1" tooltips="1" connect="1" arrows="1" fold="1" page="1" pageScale="1" pageWidth="827" pageHeight="1169" math="0" shadow="0">
      <root>
        <mxCell id="0" />
        <mxCell id="1" parent="0" />
        <mxCell id="tPTdJTCbc4bHb4Sg9p0z-68" value="" style="group" parent="1" vertex="1" connectable="0">
          <mxGeometry x="890" y="480" width="740" height="270" as="geometry" />
        </mxCell>
        <mxCell id="tPTdJTCbc4bHb4Sg9p0z-66" style="edgeStyle=orthogonalEdgeStyle;rounded=0;orthogonalLoop=1;jettySize=auto;html=1;exitX=1;exitY=0.5;exitDx=0;exitDy=0;entryX=0;entryY=0.5;entryDx=0;entryDy=0;strokeWidth=2;labelPosition=center;verticalLabelPosition=top;align=center;verticalAlign=bottom;" parent="tPTdJTCbc4bHb4Sg9p0z-68" source="tPTdJTCbc4bHb4Sg9p0z-40" target="tPTdJTCbc4bHb4Sg9p0z-50" edge="1">
          <mxGeometry relative="1" as="geometry" />
        </mxCell>
        <mxCell id="tPTdJTCbc4bHb4Sg9p0z-67" value="Mapping" style="edgeLabel;html=1;align=center;verticalAlign=middle;resizable=0;points=[];" parent="tPTdJTCbc4bHb4Sg9p0z-66" vertex="1" connectable="0">
          <mxGeometry relative="1" as="geometry">
            <mxPoint y="-10" as="offset" />
          </mxGeometry>
        </mxCell>
        <mxCell id="tPTdJTCbc4bHb4Sg9p0z-40" value="45" style="whiteSpace=wrap;html=1;fillColor=#dae8fc;strokeColor=#6c8ebf;" parent="tPTdJTCbc4bHb4Sg9p0z-68" vertex="1">
          <mxGeometry y="30" width="320" height="240" as="geometry" />
        </mxCell>
        <mxCell id="tPTdJTCbc4bHb4Sg9p0z-41" value="&lt;font face=&quot;Times New Roman&quot;&gt;GPU&lt;/font&gt;" style="rounded=0;whiteSpace=wrap;html=1;fillColor=#0050ef;fontColor=#ffffff;strokeColor=#001DBC;" parent="tPTdJTCbc4bHb4Sg9p0z-68" vertex="1">
          <mxGeometry x="20" y="45" width="150" height="60" as="geometry" />
        </mxCell>
        <mxCell id="tPTdJTCbc4bHb4Sg9p0z-42" value="&lt;font face=&quot;Times New Roman&quot;&gt;SENSOR&lt;/font&gt;" style="rounded=0;whiteSpace=wrap;html=1;fillColor=#0050ef;fontColor=#ffffff;strokeColor=#001DBC;" parent="tPTdJTCbc4bHb4Sg9p0z-68" vertex="1">
          <mxGeometry x="190" y="45" width="120" height="60" as="geometry" />
        </mxCell>
        <mxCell id="tPTdJTCbc4bHb4Sg9p0z-43" value="&lt;font face=&quot;Times New Roman&quot;&gt;MEMORY&lt;/font&gt;" style="rounded=0;whiteSpace=wrap;html=1;fillColor=#0050ef;fontColor=#ffffff;strokeColor=#001DBC;" parent="tPTdJTCbc4bHb4Sg9p0z-68" vertex="1">
          <mxGeometry x="190" y="120" width="120" height="60" as="geometry" />
        </mxCell>
        <mxCell id="tPTdJTCbc4bHb4Sg9p0z-44" value="&lt;font face=&quot;Times New Roman&quot;&gt;PCIE&lt;/font&gt;" style="rounded=0;whiteSpace=wrap;html=1;fillColor=#0050ef;fontColor=#ffffff;strokeColor=#001DBC;" parent="tPTdJTCbc4bHb4Sg9p0z-68" vertex="1">
          <mxGeometry x="190" y="190" width="120" height="60" as="geometry" />
        </mxCell>
        <mxCell id="tPTdJTCbc4bHb4Sg9p0z-47" value="&lt;font face=&quot;Times New Roman&quot;&gt;CPU&lt;/font&gt;" style="rounded=0;whiteSpace=wrap;html=1;fillColor=#0050ef;fontColor=#ffffff;strokeColor=#001DBC;" parent="tPTdJTCbc4bHb4Sg9p0z-68" vertex="1">
          <mxGeometry x="60" y="120" width="110" height="90" as="geometry" />
        </mxCell>
        <mxCell id="tPTdJTCbc4bHb4Sg9p0z-48" value="&lt;font face=&quot;Times New Roman&quot;&gt;IO&lt;/font&gt;" style="rounded=0;whiteSpace=wrap;html=1;fillColor=#0050ef;fontColor=#ffffff;strokeColor=#001DBC;" parent="tPTdJTCbc4bHb4Sg9p0z-68" vertex="1">
          <mxGeometry x="20" y="220" width="150" height="30" as="geometry" />
        </mxCell>
        <mxCell id="tPTdJTCbc4bHb4Sg9p0z-49" value="&lt;font face=&quot;Times New Roman&quot;&gt;C&lt;/font&gt;&lt;div&gt;&lt;font face=&quot;Times New Roman&quot;&gt;O&lt;/font&gt;&lt;/div&gt;&lt;div&gt;&lt;font face=&quot;Times New Roman&quot;&gt;M&lt;/font&gt;&lt;/div&gt;&lt;div&gt;&lt;font face=&quot;Times New Roman&quot;&gt;O&lt;/font&gt;&lt;/div&gt;&lt;div&gt;&lt;font face=&quot;Times New Roman&quot;&gt;S&lt;/font&gt;&lt;/div&gt;" style="rounded=0;whiteSpace=wrap;html=1;fillColor=#0050ef;fontColor=#ffffff;strokeColor=#001DBC;" parent="tPTdJTCbc4bHb4Sg9p0z-68" vertex="1">
          <mxGeometry x="20" y="120" width="30" height="90" as="geometry" />
        </mxCell>
        <mxCell id="tPTdJTCbc4bHb4Sg9p0z-50" value="" style="whiteSpace=wrap;html=1;fillColor=#dae8fc;strokeColor=#6c8ebf;" parent="tPTdJTCbc4bHb4Sg9p0z-68" vertex="1">
          <mxGeometry x="420" y="30" width="320" height="240" as="geometry" />
        </mxCell>
        <mxCell id="tPTdJTCbc4bHb4Sg9p0z-52" value="&lt;font face=&quot;Times New Roman&quot;&gt;SENSOR&lt;/font&gt;&lt;div&gt;&lt;font face=&quot;Times New Roman&quot;&gt;28nm&lt;/font&gt;&lt;/div&gt;" style="rounded=0;whiteSpace=wrap;html=1;fillColor=#fa6800;fontColor=#FFFFFF;strokeColor=#C73500;aspect=fixed;" parent="tPTdJTCbc4bHb4Sg9p0z-68" vertex="1">
          <mxGeometry x="570" y="35" width="160" height="80" as="geometry" />
        </mxCell>
        <mxCell id="tPTdJTCbc4bHb4Sg9p0z-53" value="&lt;font face=&quot;Times New Roman&quot;&gt;MEMORY&lt;/font&gt;&lt;div&gt;&lt;font face=&quot;Times New Roman&quot;&gt;14 nm&lt;/font&gt;&lt;/div&gt;" style="rounded=0;whiteSpace=wrap;html=1;fillColor=#0050ef;fontColor=#ffffff;strokeColor=#001DBC;" parent="tPTdJTCbc4bHb4Sg9p0z-68" vertex="1">
          <mxGeometry x="600" y="120" width="120" height="60" as="geometry" />
        </mxCell>
        <mxCell id="tPTdJTCbc4bHb4Sg9p0z-56" value="&lt;font face=&quot;Times New Roman&quot;&gt;IO&lt;/font&gt;&lt;div&gt;&lt;font face=&quot;Times New Roman&quot;&gt;22nm&lt;/font&gt;&lt;/div&gt;" style="rounded=0;whiteSpace=wrap;html=1;fillColor=#6d8764;fontColor=#ffffff;strokeColor=#3A5431;aspect=fixed;" parent="tPTdJTCbc4bHb4Sg9p0z-68" vertex="1">
          <mxGeometry x="440" y="220" width="250" height="50" as="geometry" />
        </mxCell>
        <mxCell id="tPTdJTCbc4bHb4Sg9p0z-54" value="&lt;font face=&quot;Times New Roman&quot;&gt;PCIE&lt;/font&gt;&lt;div&gt;&lt;font face=&quot;Times New Roman&quot;&gt;22nm&lt;/font&gt;&lt;/div&gt;" style="rounded=0;whiteSpace=wrap;html=1;fillColor=#e3c800;fontColor=#FFFFFF;strokeColor=#B09500;aspect=fixed;" parent="tPTdJTCbc4bHb4Sg9p0z-68" vertex="1">
          <mxGeometry x="600" y="190" width="140" height="70" as="geometry" />
        </mxCell>
        <mxCell id="tPTdJTCbc4bHb4Sg9p0z-57" value="&lt;font face=&quot;Times New Roman&quot;&gt;C&lt;/font&gt;&lt;div&gt;&lt;font face=&quot;Times New Roman&quot;&gt;O&lt;/font&gt;&lt;/div&gt;&lt;div&gt;&lt;font face=&quot;Times New Roman&quot;&gt;M&lt;/font&gt;&lt;/div&gt;&lt;div&gt;&lt;font face=&quot;Times New Roman&quot;&gt;O&lt;/font&gt;&lt;/div&gt;&lt;div&gt;&lt;font face=&quot;Times New Roman&quot;&gt;S&lt;/font&gt;&lt;/div&gt;&lt;div&gt;&lt;font face=&quot;Times New Roman&quot;&gt;28nm&lt;/font&gt;&lt;/div&gt;" style="rounded=0;whiteSpace=wrap;html=1;fillColor=#fa6800;strokeColor=#C73500;aspect=fixed;fontColor=#FFFFFF;" parent="tPTdJTCbc4bHb4Sg9p0z-68" vertex="1">
          <mxGeometry x="440" y="35" width="60" height="180" as="geometry" />
        </mxCell>
        <mxCell id="tPTdJTCbc4bHb4Sg9p0z-55" value="&lt;font face=&quot;Times New Roman&quot;&gt;CPU&lt;/font&gt;&lt;div&gt;&lt;font face=&quot;Times New Roman&quot;&gt;7nm&lt;/font&gt;&lt;/div&gt;" style="rounded=0;whiteSpace=wrap;html=1;fillColor=#d80073;fontColor=#ffffff;strokeColor=#A50040;aspect=fixed;" parent="tPTdJTCbc4bHb4Sg9p0z-68" vertex="1">
          <mxGeometry x="510" y="127.5" width="55" height="45" as="geometry" />
        </mxCell>
        <mxCell id="tPTdJTCbc4bHb4Sg9p0z-59" value="&lt;font face=&quot;Times New Roman&quot;&gt;14nm Generic PDK&lt;/font&gt;" style="rounded=0;whiteSpace=wrap;html=1;fillColor=#0050ef;fontColor=#ffffff;strokeColor=#001DBC;" parent="tPTdJTCbc4bHb4Sg9p0z-68" vertex="1">
          <mxGeometry width="110" height="10" as="geometry" />
        </mxCell>
        <mxCell id="tPTdJTCbc4bHb4Sg9p0z-51" value="&lt;font face=&quot;Times New Roman&quot;&gt;GPU&lt;/font&gt;&lt;div&gt;&lt;font face=&quot;Times New Roman&quot;&gt;7nm&lt;/font&gt;&lt;/div&gt;" style="rounded=0;whiteSpace=wrap;html=1;fillColor=#d80073;fontColor=#ffffff;strokeColor=#A50040;aspect=fixed;" parent="tPTdJTCbc4bHb4Sg9p0z-68" vertex="1">
          <mxGeometry x="477.5" y="45" width="75" height="30" as="geometry" />
        </mxCell>
        <mxCell id="GjdcOFR-iXv22SFUQDM7-1" value="" style="group" vertex="1" connectable="0" parent="1">
          <mxGeometry x="980" y="250" width="620" height="220" as="geometry" />
        </mxCell>
        <mxCell id="tPTdJTCbc4bHb4Sg9p0z-80" value="flow" style="rounded=1;whiteSpace=wrap;html=1;absoluteArcSize=1;arcSize=14;strokeWidth=2;align=center;horizontal=1;labelPosition=center;verticalLabelPosition=top;verticalAlign=bottom;gradientColor=none;fillColor=none;" parent="GjdcOFR-iXv22SFUQDM7-1" vertex="1">
          <mxGeometry x="140" width="300" height="80" as="geometry" />
        </mxCell>
        <mxCell id="tPTdJTCbc4bHb4Sg9p0z-71" style="edgeStyle=orthogonalEdgeStyle;rounded=0;orthogonalLoop=1;jettySize=auto;html=1;exitX=1;exitY=0.5;exitDx=0;exitDy=0;entryX=0;entryY=0.5;entryDx=0;entryDy=0;" parent="GjdcOFR-iXv22SFUQDM7-1" source="tPTdJTCbc4bHb4Sg9p0z-69" target="tPTdJTCbc4bHb4Sg9p0z-70" edge="1">
          <mxGeometry relative="1" as="geometry" />
        </mxCell>
        <mxCell id="tPTdJTCbc4bHb4Sg9p0z-69" value="&lt;font face=&quot;Times New Roman&quot;&gt;GPU&lt;/font&gt;" style="rounded=0;whiteSpace=wrap;html=1;fillColor=#0050ef;fontColor=#ffffff;strokeColor=#001DBC;" parent="GjdcOFR-iXv22SFUQDM7-1" vertex="1">
          <mxGeometry x="147" y="10" width="150" height="60" as="geometry" />
        </mxCell>
        <mxCell id="tPTdJTCbc4bHb4Sg9p0z-70" value="&lt;font face=&quot;Times New Roman&quot;&gt;GPU&lt;/font&gt;&lt;div&gt;&lt;font face=&quot;Times New Roman&quot;&gt;7nm&lt;/font&gt;&lt;/div&gt;" style="rounded=0;whiteSpace=wrap;html=1;fillColor=#d80073;fontColor=#ffffff;strokeColor=#A50040;aspect=fixed;" parent="GjdcOFR-iXv22SFUQDM7-1" vertex="1">
          <mxGeometry x="360" y="25" width="75" height="30" as="geometry" />
        </mxCell>
        <mxCell id="tPTdJTCbc4bHb4Sg9p0z-72" value="Mapping" style="edgeLabel;html=1;align=center;verticalAlign=middle;resizable=0;points=[];" parent="GjdcOFR-iXv22SFUQDM7-1" vertex="1" connectable="0">
          <mxGeometry x="330" y="30" as="geometry" />
        </mxCell>
        <mxCell id="tPTdJTCbc4bHb4Sg9p0z-75" value="PPA" style="strokeWidth=2;html=1;shape=mxgraph.flowchart.terminator;whiteSpace=wrap;" parent="GjdcOFR-iXv22SFUQDM7-1" vertex="1">
          <mxGeometry x="480" y="140" width="100" height="60" as="geometry" />
        </mxCell>
        <mxCell id="tPTdJTCbc4bHb4Sg9p0z-78" style="edgeStyle=orthogonalEdgeStyle;rounded=0;orthogonalLoop=1;jettySize=auto;html=1;exitX=1;exitY=0.5;exitDx=0;exitDy=0;exitPerimeter=0;entryX=0;entryY=0.5;entryDx=0;entryDy=0;" parent="GjdcOFR-iXv22SFUQDM7-1" source="tPTdJTCbc4bHb4Sg9p0z-76" target="tPTdJTCbc4bHb4Sg9p0z-77" edge="1">
          <mxGeometry relative="1" as="geometry" />
        </mxCell>
        <mxCell id="tPTdJTCbc4bHb4Sg9p0z-76" value="RTL&lt;div&gt;+&lt;br&gt;&lt;div&gt;Specific PDK&lt;/div&gt;&lt;/div&gt;" style="strokeWidth=2;html=1;shape=mxgraph.flowchart.start_1;whiteSpace=wrap;fillColor=#d80073;fontColor=#ffffff;strokeColor=#A50040;" parent="GjdcOFR-iXv22SFUQDM7-1" vertex="1">
          <mxGeometry y="140" width="100" height="60" as="geometry" />
        </mxCell>
        <mxCell id="tPTdJTCbc4bHb4Sg9p0z-77" value="flow" style="rounded=1;whiteSpace=wrap;html=1;absoluteArcSize=1;arcSize=14;strokeWidth=2;" parent="GjdcOFR-iXv22SFUQDM7-1" vertex="1">
          <mxGeometry x="240" y="120" width="100" height="100" as="geometry" />
        </mxCell>
        <mxCell id="tPTdJTCbc4bHb4Sg9p0z-79" style="edgeStyle=orthogonalEdgeStyle;rounded=0;orthogonalLoop=1;jettySize=auto;html=1;exitX=1;exitY=0.5;exitDx=0;exitDy=0;entryX=0;entryY=0.5;entryDx=0;entryDy=0;entryPerimeter=0;" parent="GjdcOFR-iXv22SFUQDM7-1" source="tPTdJTCbc4bHb4Sg9p0z-77" target="tPTdJTCbc4bHb4Sg9p0z-75" edge="1">
          <mxGeometry relative="1" as="geometry" />
        </mxCell>
        <mxCell id="tPTdJTCbc4bHb4Sg9p0z-82" style="edgeStyle=orthogonalEdgeStyle;rounded=0;orthogonalLoop=1;jettySize=auto;html=1;exitX=1;exitY=0.5;exitDx=0;exitDy=0;exitPerimeter=0;entryX=0;entryY=0.5;entryDx=0;entryDy=0;" parent="GjdcOFR-iXv22SFUQDM7-1" source="tPTdJTCbc4bHb4Sg9p0z-81" target="tPTdJTCbc4bHb4Sg9p0z-80" edge="1">
          <mxGeometry relative="1" as="geometry" />
        </mxCell>
        <mxCell id="tPTdJTCbc4bHb4Sg9p0z-81" value="RTL&lt;div&gt;+&lt;br&gt;&lt;div&gt;Generic PDK&lt;/div&gt;&lt;/div&gt;" style="strokeWidth=2;html=1;shape=mxgraph.flowchart.start_1;whiteSpace=wrap;fillColor=#0050ef;fontColor=#ffffff;strokeColor=#001DBC;" parent="GjdcOFR-iXv22SFUQDM7-1" vertex="1">
          <mxGeometry y="10" width="100" height="60" as="geometry" />
        </mxCell>
        <mxCell id="tPTdJTCbc4bHb4Sg9p0z-84" value="PPA" style="strokeWidth=2;html=1;shape=mxgraph.flowchart.terminator;whiteSpace=wrap;" parent="GjdcOFR-iXv22SFUQDM7-1" vertex="1">
          <mxGeometry x="480" y="10" width="100" height="60" as="geometry" />
        </mxCell>
        <mxCell id="tPTdJTCbc4bHb4Sg9p0z-85" style="edgeStyle=orthogonalEdgeStyle;rounded=0;orthogonalLoop=1;jettySize=auto;html=1;exitX=1;exitY=0.5;exitDx=0;exitDy=0;entryX=0;entryY=0.5;entryDx=0;entryDy=0;entryPerimeter=0;" parent="GjdcOFR-iXv22SFUQDM7-1" source="tPTdJTCbc4bHb4Sg9p0z-80" target="tPTdJTCbc4bHb4Sg9p0z-84" edge="1">
          <mxGeometry relative="1" as="geometry" />
        </mxCell>
        <mxCell id="tPTdJTCbc4bHb4Sg9p0z-87" style="rounded=0;orthogonalLoop=1;jettySize=auto;html=1;exitX=0.5;exitY=1;exitDx=0;exitDy=0;exitPerimeter=0;entryX=0.5;entryY=0;entryDx=0;entryDy=0;entryPerimeter=0;strokeColor=default;shadow=0;flowAnimation=0;startArrow=classic;startFill=1;" parent="GjdcOFR-iXv22SFUQDM7-1" source="tPTdJTCbc4bHb4Sg9p0z-84" target="tPTdJTCbc4bHb4Sg9p0z-75" edge="1">
          <mxGeometry relative="1" as="geometry" />
        </mxCell>
        <mxCell id="tPTdJTCbc4bHb4Sg9p0z-88" value="comparable" style="text;html=1;align=center;verticalAlign=middle;resizable=0;points=[];autosize=1;strokeColor=none;fillColor=none;" parent="GjdcOFR-iXv22SFUQDM7-1" vertex="1">
          <mxGeometry x="530" y="90" width="90" height="30" as="geometry" />
        </mxCell>
        <mxCell id="GjdcOFR-iXv22SFUQDM7-27" value="" style="group" vertex="1" connectable="0" parent="1">
          <mxGeometry x="868" y="850" width="745" height="280" as="geometry" />
        </mxCell>
        <mxCell id="GjdcOFR-iXv22SFUQDM7-5" value="45" style="whiteSpace=wrap;html=1;fillColor=#dae8fc;strokeColor=#6c8ebf;" vertex="1" parent="GjdcOFR-iXv22SFUQDM7-27">
          <mxGeometry y="29" width="300" height="217.5" as="geometry" />
        </mxCell>
        <mxCell id="GjdcOFR-iXv22SFUQDM7-6" value="&lt;font face=&quot;Times New Roman&quot;&gt;GPU&lt;/font&gt;" style="rounded=0;whiteSpace=wrap;html=1;fillColor=#0050ef;fontColor=#ffffff;strokeColor=#EA6B66;" vertex="1" parent="GjdcOFR-iXv22SFUQDM7-27">
          <mxGeometry x="5" y="35" width="170" height="75" as="geometry" />
        </mxCell>
        <mxCell id="GjdcOFR-iXv22SFUQDM7-7" value="&lt;font face=&quot;Times New Roman&quot;&gt;SENSOR&lt;/font&gt;" style="rounded=0;whiteSpace=wrap;html=1;fillColor=#0050ef;fontColor=#ffffff;strokeColor=#EA6B66;" vertex="1" parent="GjdcOFR-iXv22SFUQDM7-27">
          <mxGeometry x="175" y="35" width="120" height="75" as="geometry" />
        </mxCell>
        <mxCell id="GjdcOFR-iXv22SFUQDM7-8" value="&lt;font face=&quot;Times New Roman&quot;&gt;MEMORY&lt;/font&gt;" style="rounded=0;whiteSpace=wrap;html=1;fillColor=#0050ef;fontColor=#ffffff;strokeColor=#EA6B66;" vertex="1" parent="GjdcOFR-iXv22SFUQDM7-27">
          <mxGeometry x="175" y="110" width="120" height="70" as="geometry" />
        </mxCell>
        <mxCell id="GjdcOFR-iXv22SFUQDM7-9" value="&lt;font face=&quot;Times New Roman&quot;&gt;PCIE&lt;/font&gt;" style="rounded=0;whiteSpace=wrap;html=1;fillColor=#0050ef;fontColor=#ffffff;strokeColor=#EA6B66;" vertex="1" parent="GjdcOFR-iXv22SFUQDM7-27">
          <mxGeometry x="175" y="180" width="120" height="60" as="geometry" />
        </mxCell>
        <mxCell id="GjdcOFR-iXv22SFUQDM7-10" value="&lt;font face=&quot;Times New Roman&quot;&gt;CPU&lt;/font&gt;" style="rounded=0;whiteSpace=wrap;html=1;fillColor=#0050ef;fontColor=#ffffff;strokeColor=#EA6B66;" vertex="1" parent="GjdcOFR-iXv22SFUQDM7-27">
          <mxGeometry x="35" y="110" width="140" height="100" as="geometry" />
        </mxCell>
        <mxCell id="GjdcOFR-iXv22SFUQDM7-11" value="&lt;font face=&quot;Times New Roman&quot;&gt;IO&lt;/font&gt;" style="rounded=0;whiteSpace=wrap;html=1;fillColor=#0050ef;fontColor=#ffffff;strokeColor=#EA6B66;" vertex="1" parent="GjdcOFR-iXv22SFUQDM7-27">
          <mxGeometry x="5" y="210" width="170" height="30" as="geometry" />
        </mxCell>
        <mxCell id="GjdcOFR-iXv22SFUQDM7-12" value="&lt;font face=&quot;Times New Roman&quot;&gt;C&lt;/font&gt;&lt;div&gt;&lt;font face=&quot;Times New Roman&quot;&gt;O&lt;/font&gt;&lt;/div&gt;&lt;div&gt;&lt;font face=&quot;Times New Roman&quot;&gt;M&lt;/font&gt;&lt;/div&gt;&lt;div&gt;&lt;font face=&quot;Times New Roman&quot;&gt;O&lt;/font&gt;&lt;/div&gt;&lt;div&gt;&lt;font face=&quot;Times New Roman&quot;&gt;S&lt;/font&gt;&lt;/div&gt;" style="rounded=0;whiteSpace=wrap;html=1;fillColor=#0050ef;fontColor=#ffffff;strokeColor=#EA6B66;" vertex="1" parent="GjdcOFR-iXv22SFUQDM7-27">
          <mxGeometry x="5" y="110" width="30" height="100" as="geometry" />
        </mxCell>
        <mxCell id="GjdcOFR-iXv22SFUQDM7-13" value="" style="whiteSpace=wrap;html=1;fillColor=#dae8fc;strokeColor=#6c8ebf;" vertex="1" parent="GjdcOFR-iXv22SFUQDM7-27">
          <mxGeometry x="395" y="20" width="350" height="260" as="geometry" />
        </mxCell>
        <mxCell id="GjdcOFR-iXv22SFUQDM7-14" value="&lt;font face=&quot;Times New Roman&quot;&gt;SENSOR&lt;/font&gt;&lt;div&gt;&lt;font face=&quot;Times New Roman&quot;&gt;28nm&lt;/font&gt;&lt;/div&gt;" style="rounded=0;whiteSpace=wrap;html=1;fillColor=#fa6800;fontColor=#FFFFFF;strokeColor=default;aspect=fixed;" vertex="1" parent="GjdcOFR-iXv22SFUQDM7-27">
          <mxGeometry x="575" y="25" width="165" height="82.5" as="geometry" />
        </mxCell>
        <mxCell id="GjdcOFR-iXv22SFUQDM7-15" value="&lt;font face=&quot;Times New Roman&quot;&gt;MEMORY&lt;/font&gt;&lt;div&gt;&lt;font face=&quot;Times New Roman&quot;&gt;14 nm&lt;/font&gt;&lt;/div&gt;" style="rounded=0;whiteSpace=wrap;html=1;fillColor=#0050ef;fontColor=#ffffff;strokeColor=#33001A;" vertex="1" parent="GjdcOFR-iXv22SFUQDM7-27">
          <mxGeometry x="605" y="120" width="120" height="60" as="geometry" />
        </mxCell>
        <mxCell id="GjdcOFR-iXv22SFUQDM7-16" value="&lt;font face=&quot;Times New Roman&quot;&gt;IO&lt;/font&gt;&lt;div&gt;&lt;font face=&quot;Times New Roman&quot;&gt;22nm&lt;/font&gt;&lt;/div&gt;" style="rounded=0;whiteSpace=wrap;html=1;fillColor=#6d8764;fontColor=#ffffff;strokeColor=#33001A;" vertex="1" parent="GjdcOFR-iXv22SFUQDM7-27">
          <mxGeometry x="402.5" y="233" width="189.5" height="42" as="geometry" />
        </mxCell>
        <mxCell id="GjdcOFR-iXv22SFUQDM7-17" value="&lt;font face=&quot;Times New Roman&quot;&gt;PCIE&lt;/font&gt;&lt;div&gt;&lt;font face=&quot;Times New Roman&quot;&gt;22nm&lt;/font&gt;&lt;/div&gt;" style="rounded=0;whiteSpace=wrap;html=1;fillColor=#e3c800;fontColor=#FFFFFF;strokeColor=#33001A;" vertex="1" parent="GjdcOFR-iXv22SFUQDM7-27">
          <mxGeometry x="597" y="190" width="144" height="85" as="geometry" />
        </mxCell>
        <mxCell id="GjdcOFR-iXv22SFUQDM7-18" value="&lt;font face=&quot;Times New Roman&quot;&gt;C&lt;/font&gt;&lt;div&gt;&lt;font face=&quot;Times New Roman&quot;&gt;O&lt;/font&gt;&lt;/div&gt;&lt;div&gt;&lt;font face=&quot;Times New Roman&quot;&gt;M&lt;/font&gt;&lt;/div&gt;&lt;div&gt;&lt;font face=&quot;Times New Roman&quot;&gt;O&lt;/font&gt;&lt;/div&gt;&lt;div&gt;&lt;font face=&quot;Times New Roman&quot;&gt;S&lt;/font&gt;&lt;/div&gt;&lt;div&gt;&lt;font face=&quot;Times New Roman&quot;&gt;28nm&lt;/font&gt;&lt;/div&gt;" style="rounded=0;whiteSpace=wrap;html=1;fillColor=#fa6800;strokeColor=#000000;aspect=fixed;fontColor=#FFFFFF;" vertex="1" parent="GjdcOFR-iXv22SFUQDM7-27">
          <mxGeometry x="402.5" y="66" width="54.65" height="164" as="geometry" />
        </mxCell>
        <mxCell id="GjdcOFR-iXv22SFUQDM7-19" value="&lt;font face=&quot;Times New Roman&quot;&gt;CPU&lt;/font&gt;&lt;div&gt;&lt;font face=&quot;Times New Roman&quot;&gt;7nm&lt;/font&gt;&lt;/div&gt;" style="rounded=0;whiteSpace=wrap;html=1;fillColor=#d80073;fontColor=#ffffff;strokeColor=#000000;aspect=fixed;" vertex="1" parent="GjdcOFR-iXv22SFUQDM7-27">
          <mxGeometry x="464" y="110" width="100.23" height="82" as="geometry" />
        </mxCell>
        <mxCell id="GjdcOFR-iXv22SFUQDM7-20" value="&lt;font face=&quot;Times New Roman&quot;&gt;14nm Generic PDK&lt;/font&gt;" style="rounded=0;whiteSpace=wrap;html=1;fillColor=#0050ef;fontColor=#ffffff;strokeColor=#001DBC;" vertex="1" parent="GjdcOFR-iXv22SFUQDM7-27">
          <mxGeometry width="110" height="10" as="geometry" />
        </mxCell>
        <mxCell id="GjdcOFR-iXv22SFUQDM7-21" value="&lt;font face=&quot;Times New Roman&quot;&gt;GPU&lt;/font&gt;&lt;div&gt;&lt;font face=&quot;Times New Roman&quot;&gt;7nm&lt;/font&gt;&lt;/div&gt;" style="rounded=0;whiteSpace=wrap;html=1;fillColor=#d80073;fontColor=#ffffff;strokeColor=#000000;" vertex="1" parent="GjdcOFR-iXv22SFUQDM7-27">
          <mxGeometry x="403" y="25" width="163" height="38" as="geometry" />
        </mxCell>
        <mxCell id="GjdcOFR-iXv22SFUQDM7-23" style="edgeStyle=orthogonalEdgeStyle;rounded=0;orthogonalLoop=1;jettySize=auto;html=1;exitX=0.5;exitY=1;exitDx=0;exitDy=0;" edge="1" parent="GjdcOFR-iXv22SFUQDM7-27" source="GjdcOFR-iXv22SFUQDM7-5" target="GjdcOFR-iXv22SFUQDM7-5">
          <mxGeometry relative="1" as="geometry" />
        </mxCell>
        <mxCell id="GjdcOFR-iXv22SFUQDM7-25" style="edgeStyle=orthogonalEdgeStyle;rounded=0;orthogonalLoop=1;jettySize=auto;html=1;strokeWidth=2;labelPosition=center;verticalLabelPosition=top;align=center;verticalAlign=bottom;entryX=-0.001;entryY=0.482;entryDx=0;entryDy=0;entryPerimeter=0;" edge="1" parent="GjdcOFR-iXv22SFUQDM7-27">
          <mxGeometry relative="1" as="geometry">
            <mxPoint x="300" y="149.75" as="sourcePoint" />
            <mxPoint x="394.6500000000001" y="150.06999999999994" as="targetPoint" />
          </mxGeometry>
        </mxCell>
        <mxCell id="GjdcOFR-iXv22SFUQDM7-26" value="Mapping" style="edgeLabel;html=1;align=center;verticalAlign=middle;resizable=0;points=[];" vertex="1" connectable="0" parent="GjdcOFR-iXv22SFUQDM7-25">
          <mxGeometry relative="1" as="geometry">
            <mxPoint y="-10" as="offset" />
          </mxGeometry>
        </mxCell>
      </root>
    </mxGraphModel>
  </diagram>
</mxfile>
